<svg viewBox="78.51866666666666 736.555482 924.4444444444445 746.928" version="1.1" xmlns:xlink="http://www.w3.org/1999/xlink" xmlns="http://www.w3.org/2000/svg" style="max-height: 500px" width="924.4444444444445" height="746.928">
<g id="layer1">
<g style="fill:url(#grad0); fill-opacity:1.0; stroke-linejoin: miter">
<path d="M677.8562,941.00183L869.6442,1260.4166L786.67096,1258.882L671.98584,1083.4062C671.2701,1082.311,670.0504,1081.652,668.7438,1081.652C668.7311,1081.652,668.7184,1081.6521,668.7057,1081.6522C667.3847,1081.6652,666.1615,1082.3506,665.46063,1083.4703C625.2959,1147.6399,585.81287,1210.552,539.59827,1239.585C510.662,1257.7633,478.8258,1262.7468,445.47693,1262.7468C433.36926,1262.7468,421.11288,1262.0912,408.75272,1261.1838L408.74863,1261.1838C426.81226,1254.5145,448.62,1240.3376,482.97464,1201.6255C531.1069,1147.3883,604.38617,1044.4214,677.8494,941.00183 Z M678.12463,930.0523C676.87354,930.0523,675.6955,930.65753,674.9674,931.68256C600.2276,1036.9022,525.7087,1141.8008,477.18076,1196.4839C429.0017,1250.7739,406.99768,1254.9552,385.13037,1259.4158C383.24362,1259.8007,381.92612,1261.5132,382.03784,1263.4355C382.14957,1265.3579,383.6566,1266.9062,385.5752,1267.07C405.52487,1268.7722,425.66046,1270.4932,445.47693,1270.4932C479.56412,1270.4932,513.0546,1265.4083,543.719,1246.1443C590.49,1216.7618,630.061,1154.6025,668.8108,1092.7178L668.81744,1092.7178L781.308,1264.8356C782.00946,1265.9088,783.19653,1266.5654,784.47845,1266.5891L876.4932,1268.2911C876.5172,1268.2916,876.54114,1268.2917,876.565,1268.2917C877.94586,1268.2917,879.22485,1267.5559,879.91785,1266.3574C880.62286,1265.1382,880.61053,1263.6323,879.8855,1262.4248L681.4457,931.9317C680.7728,930.81104,679.58,930.1054,678.27386,930.0552C678.224,930.0533,678.17426,930.0523,678.12463,930.0523 Z"/>
</g>
<g style="fill:url(#grad1); fill-opacity:1.0; stroke-linejoin: miter">
<path d="M418.23608,824.4915C459.75266,824.4915,497.1333,827.1391,527.22406,834.5384C542.54254,838.3052,555.9439,843.303,567.8734,849.24005C607.2368,868.8304,630.90247,898.78,654.6647,929.7077L654.65814,929.7077L579.27045,1024.4731C577.16815,986.13403,572.45026,946.8732,534.27344,927.8735L534.2732,927.8734C533.47766,927.4775,532.6659,927.08954,531.8417,926.71185L531.84064,926.71185L531.7865,926.6865C508.40668,915.99207,473.12286,912.69226,432.77112,912.69226C400.1527,912.69226,364.22272,914.84845,328.59204,916.9979L257.32083,832.225L257.31827,832.225C313.27396,828.2608,368.69916,824.4915,418.23608,824.4915 Z M418.0637,816.74786C365.7517,816.74786,307.31378,820.91,249.19025,825.03564C247.73755,825.1387,246.46545,826.0481,245.8977,827.3893C245.32996,828.73047,245.56262,830.2768,246.49988,831.39154L323.91626,923.4739C324.65457,924.35205,325.74112,924.8546,326.88052,924.8546C326.95816,924.8546,327.03607,924.8523,327.1141,924.8476C364.00558,922.62225,400.51608,920.445,433.17603,920.445C472.63034,920.445,506.46533,923.62244,528.5642,933.73096L528.5643,933.73096L528.56714,933.7323C529.33203,934.08215,530.08606,934.44226,530.82227,934.8086C567.66974,953.147,569.9457,992.45013,572.0562,1035.0919C572.13586,1036.7017,573.20416,1038.0939,574.73846,1038.5874C575.12885,1038.713,575.5286,1038.7738,575.9243,1038.7738C577.0837,1038.7738,578.2077,1038.2521,578.95575,1037.3118L662.60834,932.1569C663.7156,930.765,663.7326,928.79785,662.64954,927.387C638.347,895.73145,613.51373,863.3015,571.3248,842.30505C558.8666,836.10486,544.92633,830.91425,529.0738,827.0161C498.27127,819.44183,460.15002,816.74786,418.0637,816.74786 Z"/>
</g>
<g style="fill:url(#grad2); fill-opacity:1.0; stroke-linejoin: miter">
<path d="M137.66544,1327.4285L137.66544,1327.4285L137.46144,1377.6161L133.20819,1373.0764C146.61684,1373.8961,158.84448,1374.5857,167.65988,1372.0658L167.65985,1372.0658C171.108,1371.0801,173.74817,1369.6702,175.66183,1367.8029L175.66185,1367.8029C182.65598,1360.9783,182.60968,1345.4806,175.39325,1338.085L175.39325,1338.085C175.30472,1337.9941,175.21657,1337.9061,175.12622,1337.8184L175.12628,1337.8184C167.69661,1330.595,152.30577,1331.003,133.35814,1331.9342L137.66544,1327.4285 M128.6062,1327.3916C128.61598,1324.9835,130.50827,1323.004,132.91348,1322.8859L132.91348,1322.8859C149.93085,1322.0496,170.50494,1320.6902,181.44138,1331.3229L181.44144,1331.323C181.5892,1331.4667,181.73361,1331.6108,181.87729,1331.758L181.87729,1331.758C192.3408,1342.4816,192.81189,1363.7261,181.98868,1374.2869L181.98868,1374.2869C178.70105,1377.4948,174.5777,1379.5104,170.14987,1380.7761L170.14984,1380.7761C159.50838,1383.8181,145.49152,1382.9036,132.65544,1382.1189C130.25848,1381.9724,128.39244,1379.9807,128.4022,1377.5792L128.4022,1377.5792L128.6062,1327.3916 Z"/>
</g>
<g style="fill:url(#grad2); fill-opacity:1.0; stroke-linejoin: miter">
<path d="M277.81866,1333.9922L277.81866,1333.9922L229.73282,1334.047L234.25726,1329.5386L234.03741,1376.4281L229.49881,1371.8772L277.77637,1371.7812C280.278,1371.7764,282.31006,1373.8003,282.31503,1376.3019C282.32,1378.8036,280.29605,1380.8356,277.79437,1380.8406L277.79437,1380.8406L229.51682,1380.9365C228.31024,1380.939,227.15257,1380.4598,226.30054,1379.6055C225.44852,1378.7512,224.97255,1377.5923,224.97821,1376.3856L224.97821,1376.3856L225.19806,1329.4961C225.20973,1327.0048,227.23114,1324.9905,229.72249,1324.9877L229.72249,1324.9877L277.80835,1324.9329C280.31,1324.9299,282.3403,1326.9557,282.34314,1329.4573C282.346,1331.959,280.3203,1333.9893,277.81866,1333.9922 Z"/>
</g>
<g style="fill:url(#grad2); fill-opacity:1.0; stroke-linejoin: miter">
<path d="M232.2978,1347.4711L232.2978,1347.4711L262.96515,1348.2203C265.46606,1348.2814,267.44394,1350.3584,267.38284,1352.8593C267.32172,1355.3601,265.2448,1357.338,262.7439,1357.2769L262.7439,1357.2769L232.07654,1356.5277C229.57562,1356.4666,227.59776,1354.3896,227.65886,1351.8887C227.71997,1349.3878,229.79689,1347.4099,232.2978,1347.4711 Z"/>
</g>
<g style="fill:url(#grad2); fill-opacity:1.0; stroke-linejoin: miter">
<path d="M314.9868,1377.9368L314.9868,1377.9368L315.20746,1327.9297C315.21558,1326.0878,316.3382,1324.4342,318.04712,1323.7471C319.75604,1323.0599,321.7109,1323.476,322.99188,1324.7994L322.99188,1324.7994L371.99142,1375.4261L364.20718,1378.6224L363.6947,1328.2458C363.66925,1325.7443,365.6765,1323.6958,368.17804,1323.6704C370.67957,1323.645,372.7281,1325.6522,372.75354,1328.1538L372.75354,1328.1538L373.26602,1378.5304C373.28488,1380.3843,372.17212,1382.0624,370.45712,1382.7666C368.74213,1383.4708,366.77115,1383.0588,365.48178,1381.7267L365.48178,1381.7267L316.48224,1331.1L324.26666,1327.9697L324.046,1377.9768C324.03494,1380.4784,321.99805,1382.4974,319.4964,1382.4865C316.99475,1382.4755,314.97574,1380.4384,314.9868,1377.9368 Z"/>
</g>
<g style="fill:url(#grad2); fill-opacity:1.0; stroke-linejoin: miter">
<path d="M422.57904,1327.6028L422.57904,1327.6028L422.57904,1380.1636C422.57904,1382.6652,420.55106,1384.6932,418.04938,1384.6932C415.54773,1384.6932,413.51974,1382.6652,413.51974,1380.1636L413.51974,1380.1636L413.5197,1327.6028C413.5197,1325.1011,415.54773,1323.0731,418.04938,1323.0731C420.55103,1323.0731,422.57904,1325.1011,422.57904,1327.6028 Z"/>
</g>
<g style="fill:url(#grad3); fill-opacity:1.0; stroke-linejoin: miter">
<path d="M498.88843,1378.61L498.88843,1378.61L526.82263,1331.033C527.6352,1329.6489,529.1195,1328.7982,530.7244,1328.7966C532.32935,1328.7952,533.81525,1329.643,534.6305,1331.0254L534.6305,1331.0254L562.1583,1377.7052C563.4291,1379.8601,562.71234,1382.6371,560.5575,1383.9078C558.4026,1385.1786,555.6256,1384.4619,554.35486,1382.307L554.35486,1382.307L526.827,1335.6272L534.6349,1335.6198L506.70068,1383.1968C505.43405,1385.3541,502.65842,1386.0762,500.50113,1384.8096C498.3438,1383.543,497.62177,1380.7672,498.88843,1378.61 Z"/>
</g>
<g style="fill:url(#grad3); fill-opacity:1.0; stroke-linejoin: miter">
<path d="M598.9559,1324.086L598.9559,1324.086C615.338,1323.4802,634.0387,1322.6178,644.9383,1328.7926L644.9383,1328.7926C645.4821,1329.1006,646.01294,1329.4288,646.52856,1329.7787L646.52856,1329.7787C658.19995,1337.6968,658.2297,1353.507,655.93445,1362.6931L655.93445,1362.6931C653.29846,1373.243,646.93335,1378.701,636.5122,1380.8811L636.5122,1380.8811C626.9343,1382.8846,613.3725,1382.2534,600.72974,1381.6963C598.23773,1381.5864,596.30347,1379.4824,596.40314,1376.99L596.40314,1376.99L597.53546,1348.6753C597.63544,1346.1755,599.74286,1344.2302,602.24255,1344.3302C604.7422,1344.4302,606.6875,1346.5376,606.5876,1349.0372L606.5876,1349.0372L605.4552,1377.3519L601.1286,1372.6458C614.2534,1373.2241,626.45953,1373.7285,634.6572,1372.0137L634.6572,1372.0137C642.01184,1370.4752,645.4304,1367.3607,647.1453,1360.4971L647.1453,1360.4971C649.201,1352.2697,648.14886,1341.8252,641.44257,1337.2756L641.4426,1337.2756C641.139,1337.0696,640.8155,1336.869,640.47284,1336.6749L640.47284,1336.6749C632.3735,1332.0864,616.9913,1332.4845,599.29065,1333.1392C596.7907,1333.2316,594.68915,1331.2799,594.5967,1328.78C594.5043,1326.28,596.45593,1324.1785,598.9559,1324.086 Z"/>
</g>
<g style="fill:url(#grad3); fill-opacity:1.0; stroke-linejoin: miter">
<path d="M701.0892,1325.6646L701.0892,1325.6646L701.0892,1379.527C701.08923,1382.0287,699.0612,1384.0566,696.5596,1384.0566C694.05786,1384.0566,692.0299,1382.0286,692.0299,1379.527L692.0299,1379.527L692.0299,1325.6647C692.0299,1323.163,694.05786,1321.135,696.5595,1321.135C699.0612,1321.135,701.0892,1323.163,701.0892,1325.6646 Z"/>
</g>
<g style="fill:url(#grad3); fill-opacity:1.0; stroke-linejoin: miter">
<path d="M736.7901,1323.1017L736.7901,1323.1017L788.2341,1323.1017C790.7357,1323.1017,792.76373,1325.1296,792.76373,1327.6313C792.76373,1330.1329,790.7357,1332.161,788.2341,1332.161L788.2341,1332.161L736.7901,1332.161C734.28845,1332.161,732.26044,1330.133,732.26044,1327.6313C732.26044,1325.1296,734.28845,1323.1017,736.7901,1323.1017 Z"/>
</g>
<g style="fill:url(#grad3); fill-opacity:1.0; stroke-linejoin: miter">
<path d="M766.4899,1329.3508L766.4899,1329.3508L766.4899,1379.5557C766.4899,1382.0573,764.462,1384.0853,761.9603,1384.0853C759.4586,1384.0853,757.43066,1382.0573,757.43066,1379.5557L757.43066,1379.5557L757.43066,1329.3508C757.43066,1326.8491,759.4586,1324.8212,761.9603,1324.8212C764.462,1324.8212,766.4899,1326.8491,766.4899,1329.3508 Z"/>
</g>
<g style="fill:url(#grad3); fill-opacity:1.0; stroke-linejoin: miter">
<path d="M824.69666,1323.4205L824.69666,1323.4205L846.9691,1350.7949C848.548,1352.7354,848.25476,1355.5884,846.3143,1357.1672C844.3738,1358.7461,841.5208,1358.4529,839.94196,1356.5123L839.94196,1356.5123L817.6695,1329.1381C816.09064,1327.1975,816.3838,1324.3446,818.32434,1322.7657C820.26483,1321.1869,823.1178,1321.4801,824.69666,1323.4205 Z"/>
</g>
<g style="fill:url(#grad3); fill-opacity:1.0; stroke-linejoin: miter">
<path d="M869.1439,1330.0446L869.1439,1330.0446L848.76117,1356.5511C847.2362,1358.5343,844.39233,1358.9058,842.4092,1357.3807C840.4261,1355.8558,840.0547,1353.012,841.57965,1351.0288L841.57965,1351.0288L861.9624,1324.5222C863.48737,1322.5391,866.33124,1322.1676,868.3144,1323.6926C870.2975,1325.2175,870.66895,1328.0614,869.1439,1330.0446 Z"/>
</g>
<g style="fill:url(#grad3); fill-opacity:1.0; stroke-linejoin: miter">
<path d="M848.328,1354.317L848.328,1354.317L849.18524,1379.3334C849.27094,1381.8336,847.3136,1383.9298,844.8134,1384.0155C842.31323,1384.1012,840.2169,1382.1438,840.1313,1379.6437L840.1313,1379.6437L839.274,1354.6273C839.1883,1352.1271,841.1457,1350.0308,843.6459,1349.9452C846.14606,1349.8595,848.2423,1351.8168,848.328,1354.317 Z"/>
</g>
<g style="fill:url(#grad3); fill-opacity:1.0; stroke-linejoin: miter">
<path d="M889.11017,1376.7065L889.11017,1376.7065L915.9621,1329.9706C917.2083,1327.8014,919.97705,1327.0533,922.1462,1328.2996C924.3153,1329.5458,925.0635,1332.3146,923.8172,1334.4836L923.8172,1334.4836L896.9653,1381.2197C895.719,1383.3888,892.9503,1384.137,890.7812,1382.8907C888.61206,1381.6444,887.8639,1378.8757,889.11017,1376.7065 Z"/>
</g>
<g style="fill:url(#grad3); fill-opacity:1.0; stroke-linejoin: miter">
<path d="M924.5752,1330.6855L924.5752,1330.6855L950.8052,1375.1572C952.07605,1377.312,951.35956,1380.089,949.2048,1381.36C947.05005,1382.6309,944.27295,1381.9144,943.002,1379.7596L943.002,1379.7596L916.77203,1335.288C915.5011,1333.1332,916.2176,1330.3562,918.3724,1329.0852C920.52716,1327.8143,923.30426,1328.5308,924.5752,1330.6855 Z"/>
</g>
<g style="fill:url(#grad4); fill-opacity:1.0; stroke-linejoin: miter">
<path d="M695.0883,1184.9014L695.0883,1184.9014L633.2486,1185.9175L636.8827,1183.9894L579.9053,1265.2283L576.00604,1258.1016L640.14966,1255.398L636.6074,1257.358L691.2809,1177.8066L695.0883,1184.9014 M694.9395,1175.8433C696.63464,1175.8154,698.2034,1176.7366,699.0051,1178.2303C699.8068,1179.7242,699.7072,1181.5408,698.74695,1182.938L698.74695,1182.938L644.0734,1262.4891C643.2666,1263.6632,641.95447,1264.3892,640.5312,1264.4492L640.5312,1264.4492L576.3876,1267.1528C574.665,1267.2255,573.0506,1266.314,572.223,1264.8014C571.3955,1263.289,571.49835,1261.4377,572.4883,1260.0262L572.4883,1260.0262L629.4657,1178.7875C630.2985,1177.6001,631.6496,1176.8833,633.0998,1176.8594L633.0998,1176.8594L694.9395,1175.8433 Z"/>
</g>
<g style="fill:url(#grad0); fill-opacity:1.0; stroke-linejoin: miter">
<path d="M677.844,940.7001C677.7494,940.7001,677.66064,940.74585,677.6057,940.8229L677.427,941.07355C626.3526,1012.72614,575.3943,1084.1239,532.99835,1139.3394C532.95294,1139.3986,532.9326,1139.4716,532.93896,1139.5433L532.9336,1139.5433C532.79755,1140.2524,532.4467,1140.9266,531.88275,1141.462L531.4028,1141.9177C531.0491,1142.2535,530.31586,1142.9492,529.96,1143.2865C529.93195,1143.3131,529.91003,1143.3444,529.8947,1143.3782L529.8894,1143.3782C512.46655,1165.9648,496.55634,1185.693,482.76978,1201.4154C450.5129,1238.2014,429.5548,1253.3876,406.95877,1260.4817C406.82092,1260.525,406.73526,1260.6624,406.75714,1260.8052C406.77887,1260.947,406.90027,1261.052,407.0435,1261.0535L407.03845,1261.0535C420.78763,1262.1628,434.40137,1263.0134,447.79144,1263.0134C480.09592,1263.0134,511.13022,1258.0635,539.73517,1239.8447C585.38806,1210.768,625.2387,1147.762,665.7156,1083.6144C666.36334,1082.5878,667.4872,1081.9595,668.7,1081.9448L668.70667,1081.9448C668.7062,1081.9448,668.7077,1081.945,668.7104,1081.945C668.7216,1081.945,668.75397,1081.9447,668.7522,1081.9446L668.75885,1081.9446C669.96124,1081.9497,671.08203,1082.5583,671.74097,1083.5664L671.7409,1083.5664L786.4259,1259.0432C786.4809,1259.1274,786.57385,1259.1758,786.67084,1259.1758C786.6767,1259.1758,786.6826,1259.1757,786.6885,1259.1753L786.69635,1259.1753L869.63885,1260.7104L869.64435,1260.7104C869.72095,1260.7104,869.79456,1260.6805,869.8493,1260.6267C869.90533,1260.5717,869.93695,1260.4965,869.93695,1260.4178L869.93695,1260.4169C869.93695,1260.3638,869.92255,1260.3118,869.8952,1260.2662L678.1017,940.8421C678.04877,940.754,677.95355,940.7001,677.85077,940.7001 Z"/>
</g>
<g style="fill:url(#grad4); fill-opacity:1.0; stroke-linejoin: miter">
<path d="M686.302,1184.8224L635.57367,1185.6569C635.5681,1185.6565,635.5626,1185.6562,635.55707,1185.6562C635.4856,1185.6562,635.4168,1185.6907,635.3742,1185.7513L584.9926,1257.5869C584.94476,1257.6552,584.9389,1257.7443,584.97736,1257.8181C585.00977,1257.8802,585.069,1257.923,585.1366,1257.9349L585.13074,1257.9349C585.1453,1257.9379,585.16003,1257.9393,585.1746,1257.9393C585.18384,1257.9393,585.193,1257.9387,585.2021,1257.9376L585.1962,1257.9376L637.89844,1255.7173C637.9716,1255.7142,638.0353,1255.6761,638.0737,1255.6198L638.07306,1255.6198L686.4897,1185.1721C686.537,1185.1033,686.5419,1185.0137,686.5024,1184.9401C686.46344,1184.8676,686.38776,1184.8224,686.3056,1184.8224 Z"/>
</g>
<g style="fill:url(#grad1); fill-opacity:1.0; stroke-linejoin: miter">
<path d="M418.23608,824.0803C368.69272,824.0803,313.2584,827.8498,257.31705,831.8138L257.31448,831.8138C257.2676,831.8145,257.22037,831.8233,257.17484,831.8406L257.17712,831.8406C257.1603,831.84686,257.144,831.85425,257.12836,831.86255L257.1258,831.86255C256.96906,831.9455,256.88126,832.1218,256.91397,832.3001C256.9311,832.3934,256.97885,832.4744,257.04572,832.5337L257.04315,832.5337L328.27728,917.2635C328.35696,917.3583,328.47305,917.41016,328.59216,917.41016C328.60898,917.41016,328.62582,917.4091,328.64264,917.40704L328.63937,917.40704C364.2643,915.2579,400.17538,913.10345,432.77112,913.10345C473.12204,913.10345,508.32452,916.4067,531.6155,927.0605L531.61523,927.0605L531.66095,927.0827C531.68005,927.092,531.6996,927.0997,531.7194,927.1058L531.7141,927.1058C532.5213,927.47614,533.3106,927.8537,534.08997,928.2416L534.11096,928.2493L534.10565,928.2493C572.0317,947.13416,576.7564,986.1355,578.85986,1024.4966C578.8718,1024.7152,579.0526,1024.8853,579.2702,1024.8853C579.27405,1024.8853,579.27783,1024.8853,579.2817,1024.8851C579.40814,1024.8817,579.52,1024.8214,579.593,1024.7291L579.5922,1024.7291L654.9799,929.96466L654.9858,929.96466C655.01044,929.93384,655.0308,929.89923,655.046,929.86163C655.1005,929.72656,655.07947,929.5727,654.9907,929.45715C631.2303,898.5318,607.51447,868.5092,568.05664,848.8719C556.0992,842.9209,542.66907,837.91284,527.32227,834.1391C497.1837,826.728,459.7644,824.0803,418.23608,824.0803 Z"/>
</g>
<g style="fill:url(#grad5); fill-opacity:1.0; stroke-linejoin: miter">
<path d="M203.66653,1264.4615L203.66653,1264.4615L354.76746,987.3338C355.5829,985.83826,357.16843,984.92664,358.87115,984.9743L358.87115,984.9743L453.8213,987.6324C455.39682,987.6765,456.83618,988.53644,457.62164,989.90295C458.4071,991.2695,458.42575,992.946,457.6709,994.32965L457.6709,994.32965L359.3809,1174.4918L355.69165,1167.802L356.33737,1167.843L356.33777,1167.843C378.4507,1169.2496,400.37344,1170.6299,419.85724,1170.6299L419.85724,1170.6299C432.23184,1170.6299,443.50735,1170.0717,453.13806,1168.6423L453.13806,1168.6423C477.8413,1164.9758,492.3018,1155.5109,507.3845,1145.6097C509.23788,1144.3931,511.69962,1144.6968,513.2018,1146.3274C514.7039,1147.958,514.805,1150.4364,513.44055,1152.184L513.44055,1152.184C484.5565,1189.1788,454.90222,1227.2827,420.73145,1246.492L420.73148,1246.492C387.84384,1264.9799,351.1589,1265.7979,316.9731,1266.6387L316.97327,1266.6387C315.62445,1266.6719,313.58353,1266.7223,312.2436,1266.7567L312.2436,1266.7567C276.47836,1267.6742,242.217,1269.4116,207.88689,1271.153L207.89471,1271.1526L207.88075,1271.1533C206.24205,1271.2393,204.68498,1270.4323,203.81053,1269.0437C202.93608,1267.6552,202.881,1265.9022,203.66653,1264.4615L203.66653,1264.4615 M211.62039,1268.7982L207.40617,1262.1064L207.42014,1262.1057L207.42796,1262.1053C241.73898,1260.365,276.11884,1258.621,312.0113,1257.7003L312.0113,1257.7003C313.1791,1257.6704,315.58057,1257.6108,316.75018,1257.582L316.75034,1257.582C351.31482,1256.7319,385.68155,1255.8029,416.29208,1238.595L416.2921,1238.595C448.53885,1220.4673,477.0335,1184.0934,506.2999,1146.6088L512.356,1153.183C497.11667,1163.1869,481.25253,1173.628,454.46808,1177.6035L454.46808,1177.6035C444.22104,1179.1244,432.45297,1179.6892,419.85724,1179.6892L419.85724,1179.6892C400.03006,1179.6892,377.8091,1178.2864,355.7627,1176.884L355.7631,1176.884L355.11737,1176.843C353.57254,1176.7448,352.18515,1175.865,351.4379,1174.5098C350.69064,1173.1545,350.68698,1171.5117,351.42813,1170.1532L351.42813,1170.1532L449.71814,989.9909L453.56775,996.6882L358.6176,994.0301L362.7213,991.6706L211.62039,1268.7982 Z"/>
</g>
<g style="fill:url(#grad5); fill-opacity:1.0; stroke-linejoin: miter">
<path d="M361.39233,993.9482L361.39233,993.94916L361.39233,993.95013L361.39233,993.9511L361.39233,993.9521C361.3341,993.9482,361.28033,993.98,361.25235,994.0313L214.90779,1262.4365C214.87494,1262.4968,214.8843,1262.5713,214.93102,1262.6216C214.96188,1262.6548,215.00449,1262.6725,215.04787,1262.6725C215.0507,1262.6725,215.05356,1262.6724,215.0564,1262.6722L215.05855,1262.6732C243.16403,1264.255,270.96558,1265.7019,297.25107,1265.7019C335.86078,1265.7019,365.47824,1256.9167,395.72296,1255.5339C432.5468,1253.8503,470.73492,1203.1033,497.0388,1167.0566C497.07095,1167.0126,497.07837,1166.9551,497.05847,1166.9043C497.03857,1166.8535,496.99414,1166.8164,496.9406,1166.8059L496.93564,1166.8049L496.84433,1166.814C487.22638,1163.7538,472.28488,1175.5607,454.2632,1177.4688C444.44287,1178.5084,433.1607,1178.908,420.99545,1178.908C400.74127,1178.908,378.03113,1177.8009,355.52542,1176.7036L355.52533,1176.7046L355.19165,1176.6875L355.19174,1176.6885C353.68887,1176.6141,352.32968,1175.7732,351.59335,1174.4609C350.8571,1173.1488,350.84763,1171.5504,351.56818,1170.2296L446.31732,996.5587L446.33682,996.4823L446.33682,996.4813C446.33682,996.39496,446.26807,996.3243,446.1817,996.32184L361.3969,993.94824C361.3954,993.9482,361.39386,993.9482,361.39233,993.9482L361.39233,993.94916L361.39233,993.9482L361.39233,993.94916L361.39233,993.9482 Z"/>
</g>
</g>
<defs>
<linearGradient y2="1317.8638" x2="158.73993" y1="1425.5002" x1="150.81212" gradientUnits="userSpaceOnUse" id="grad2">
<stop style="stop-color:rgb(0,0,0); stop-opacity:1.0" offset="0.0%"/>
<stop style="stop-color:rgb(255,255,255); stop-opacity:1.0" offset="100.0%"/>
</linearGradient>
<linearGradient y2="1295.1754" x2="529.43823" y1="1420.4296" x1="540.2832" gradientUnits="userSpaceOnUse" id="grad3">
<stop style="stop-color:rgb(0,0,0); stop-opacity:1.0" offset="0.0%"/>
<stop style="stop-color:rgb(30,62,255); stop-opacity:1.0" offset="100.0%"/>
</linearGradient>
<linearGradient y2="1000.5017" x2="664.8512" y1="1330.051" x1="619.9435" gradientUnits="userSpaceOnUse" id="grad4">
<stop style="stop-color:rgb(0,0,0); stop-opacity:1.0" offset="0.0%"/>
<stop style="stop-color:rgb(30,62,255); stop-opacity:1.0" offset="100.0%"/>
</linearGradient>
<linearGradient y2="874.2629" x2="710.63556" y1="1122.1149" x1="3.9400635" gradientUnits="userSpaceOnUse" id="grad1">
<stop style="stop-color:rgb(0,0,0); stop-opacity:1.0" offset="0.0%"/>
<stop style="stop-color:rgb(255,255,255); stop-opacity:1.0" offset="100.0%"/>
</linearGradient>
<linearGradient y2="1040.9813" x2="500.2887" y1="1276.1653" x1="212.93613" gradientUnits="userSpaceOnUse" id="grad5">
<stop style="stop-color:rgb(0,0,0); stop-opacity:1.0" offset="0.0%"/>
<stop style="stop-color:rgb(255,255,255); stop-opacity:1.0" offset="100.0%"/>
</linearGradient>
<linearGradient y2="936.3334" x2="600.63336" y1="1281.5018" x1="504.34045" gradientUnits="userSpaceOnUse" id="grad0">
<stop style="stop-color:rgb(0,0,0); stop-opacity:1.0" offset="0.0%"/>
<stop style="stop-color:rgb(30,62,255); stop-opacity:1.0" offset="100.0%"/>
</linearGradient>
</defs>
</svg>